<?xml version="1.0" encoding="utf-8"?>
<!-- Generator: Adobe Illustrator 26.5.0, SVG Export Plug-In . SVG Version: 6.00 Build 0)  -->
<svg version="1.1" id="Layer_1" xmlns="http://www.w3.org/2000/svg" xmlns:xlink="http://www.w3.org/1999/xlink" x="0px" y="0px"
	 viewBox="0 0 1000 1000" style="enable-background:new 0 0 1000 1000;" xml:space="preserve">
<style type="text/css">
	.st0{stroke:#000000;stroke-miterlimit:10;}
</style>
<path class="st0" d="M854.5,692l145.7-161.2l-136.8-20c69.2-15.7,120.4-60.5,120.4-181.2c0-168.9-99.4-189.1-208.3-189.1
	c-66,0-128.6,7.4-167.6,50.9c-3.7-6.2-8.2-12-13.4-17.2c-16.6-16.6-39-25.9-62.4-25.8H252.4v0H-0.2v431.8h116.5V371.9h136.2l1,139
	l114.8,0l0.6-139H439l57.1,138.9h126.1L596.1,452c21.6,33.2,53.9,50.3,91.5,58.8l-59.2,10h-69l-191.2,1l-114.8-1v1.5L251.8,692
	c0,86.3-36.2,96.6-80.8,96.6c-35.9,0-55.9-9.7-54.7-55.3v-3H-0.2v3.9c0,119.4,72.5,138.9,171.2,138.9c29.5,0,57.5,0,82.5,0h306h69
	h80.5l71-88.2l71,88.2h149.5L854.5,692z M230.7,287.4H116.2V233h114.5c0,0,20.6,0,20.6,27.2S230.7,287.4,230.7,287.4z M483.3,287.3
	H368.9V233h114.5c0,0,20.6,0,20.6,27.2S483.3,287.3,483.3,287.3z M558.6,367.8c1-0.3,2-0.6,3-1c2.4-0.9,4.8-1.8,7.1-2.9
	c1.6,16.6,4.3,31.5,8.1,44.9L558.6,367.8z M627.4,788.6H369.9v-54.3h236.6v-84.5H369.9v-54.3h257.5l77.7,96.6L627.4,788.6z
	 M779.8,599.1l-67.5-83.9c20.2,2.6,41.5,3.5,63.1,3.5c25.2,0,49.9-1.1,72.9-4.9L779.8,599.1z M775.5,434.2
	c-44.6,0-91.9-14.8-91.9-104.5c0-90.1,47.2-104.5,91.9-104.5s91.9,14.4,91.9,104.5C867.4,419.3,820.1,434.2,775.5,434.2z"/>
</svg>
