<?xml version="1.0" encoding="utf-8"?>
<!-- Generator: Adobe Illustrator 26.5.0, SVG Export Plug-In . SVG Version: 6.00 Build 0)  -->
<svg version="1.1" id="Layer_1" xmlns="http://www.w3.org/2000/svg" xmlns:xlink="http://www.w3.org/1999/xlink" x="0px" y="0px"
	 viewBox="0 0 1000 1000" style="enable-background:new 0 0 1000 1000;" xml:space="preserve">
<style type="text/css">
	.st0{fill:#FFFFFF;}
</style>
<path class="st0" d="M1000.23,503.99H863.45c69.19-15.69,120.38-60.52,120.38-181.22c0-168.88-99.37-189.06-208.34-189.06
	c-66.05,0-128.57,7.43-167.57,50.88c-3.7-6.2-8.18-11.98-13.38-17.18c-16.56-16.56-39.02-25.85-62.43-25.84H252.4v0.04H-0.23v585.81
	c0,119.39,72.52,138.89,171.16,138.89c29.46,0,57.53-0.04,82.5,0h305.95h68.96h80.51l70.96-88.24l70.96,88.24h149.46L854.54,685.14
	L1000.23,503.99z M561.62,359.92c2.42-0.86,4.77-1.84,7.08-2.89c1.57,16.65,4.32,31.55,8.13,44.86l-18.2-40.98
	C559.63,360.6,560.63,360.27,561.62,359.92z M368.87,226.1h114.46c0,0,20.57,0,20.57,27.18c0,27.18-20.57,27.18-20.57,27.18H368.87
	V226.1z M116.24,226.14H230.7c0,0,20.57,0,20.57,27.18c0,27.18-20.57,27.18-20.57,27.18H116.24V226.14z M253.43,503.99l-1.67,181.16
	c0,86.31-36.19,96.62-80.83,96.62c-35.94,0-55.88-9.72-54.69-55.28V365.03H252.4L253.43,503.99l115.44-0.11V364.99h70.1
	l57.12,138.93h126.07l-26.1-58.76c21.64,33.19,53.91,50.3,91.48,58.82h-59.19h-68.96H368.23H253.43z M627.37,781.76H369.9v-54.35
	h236.58v-84.54H369.9v-54.35h257.47l77.71,96.62L627.37,781.76z M779.81,592.22l-67.45-83.88c20.2,2.64,41.48,3.48,63.14,3.48
	c25.2,0,49.87-1.12,72.93-4.92L779.81,592.22z M775.49,427.28c-44.64,0-91.87-14.83-91.87-104.52c0-90.07,47.23-104.52,91.87-104.52
	c44.64,0,91.87,14.45,91.87,104.52C867.36,412.45,820.13,427.28,775.49,427.28z"/>
</svg>
